<svg width="15" height="15" viewBox="0 0 15 15" fill="none" xmlns="http://www.w3.org/2000/svg">
<g clip-path="url(#clip0_1_46)">
<path fill-rule="evenodd" clip-rule="evenodd" d="M7.5 8.38375L11.0356 11.9194C11.1535 12.0332 11.3114 12.0962 11.4752 12.0948C11.6391 12.0934 11.7959 12.0276 11.9118 11.9118C12.0276 11.7959 12.0934 11.6391 12.0948 11.4753C12.0962 11.3114 12.0332 11.1535 11.9194 11.0356L8.38375 7.5L11.9194 3.96438C12.0332 3.8465 12.0962 3.68862 12.0948 3.52475C12.0934 3.36088 12.0276 3.20412 11.9118 3.08824C11.7959 2.97236 11.6391 2.90663 11.4752 2.90521C11.3114 2.90378 11.1535 2.96678 11.0356 3.08063L7.5 6.61625L3.96437 3.08063C3.84596 2.96959 3.689 2.90898 3.5267 2.91162C3.3644 2.91425 3.20949 2.97993 3.09475 3.09475C2.98001 3.20957 2.91445 3.36452 2.91193 3.52683C2.9094 3.68913 2.97013 3.84605 3.08125 3.96438L6.61625 7.5L3.08062 11.0356C3.02093 11.0933 2.97331 11.1622 2.94056 11.2385C2.9078 11.3148 2.89056 11.3968 2.88984 11.4798C2.88912 11.5627 2.90493 11.645 2.93636 11.7218C2.96778 11.7987 3.01419 11.8684 3.07287 11.9271C3.13156 11.9858 3.20134 12.0322 3.27815 12.0636C3.35496 12.0951 3.43726 12.1109 3.52025 12.1102C3.60323 12.1094 3.68525 12.0922 3.7615 12.0594C3.83775 12.0267 3.90672 11.9791 3.96437 11.9194L7.5 8.38375Z" fill="white"/>
</g>
<defs>
<clipPath id="clip0_1_46">
<rect width="15" height="15" fill="white"/>
</clipPath>
</defs>
</svg>
